<!-- created by svgstack.com | Attribution is required. --><svg width="201" height="201" viewBox="0 0 201 201" fill="none" xmlns="http://www.w3.org/2000/svg"><path d="M200.827 100.423C200.827 150.943 163.39 192.708 114.756 199.485C110.209 200.116 105.556 200.446 100.834 200.446C95.3825 200.446 90.0293 200.011 84.8163 199.17C37.2056 191.503 0.840698 150.207 0.840698 100.423C0.840698 45.1799 45.6137 0.393799 100.841 0.393799C156.068 0.393799 200.841 45.1799 200.841 100.423H200.827Z" fill="#383D38"/><path d="M114.756 80.7146V102.505H141.704L137.437 131.858H114.756V199.486C110.209 200.116 105.556 200.446 100.834 200.446C95.3824 200.446 90.0292 200.011 84.8162 199.17V131.858H59.9634V102.505H84.8162V75.8435C84.8162 59.3028 98.2201 45.8879 114.763 45.8879V45.902C114.812 45.902 114.854 45.8879 114.903 45.8879H141.711V71.2738H124.194C118.988 71.2738 114.763 75.5001 114.763 80.7076L114.756 80.7146Z" fill="white"/></svg> 