<!-- created by svgstack.com | Attribution is required. --><svg width="201" height="201" viewBox="0 0 201 201" fill="none" xmlns="http://www.w3.org/2000/svg"><path d="M101.129 0H100.673C45.5708 0 0.901245 44.6827 0.901245 99.8017V100.257C0.901245 155.376 45.5708 200.059 100.673 200.059H101.129C156.232 200.059 200.901 155.376 200.901 100.257V99.8017C200.901 44.6827 156.232 0 101.129 0Z" fill="#00B0F2"/><path d="M38.7808 96.62C39.0611 96.4798 39.3415 96.3467 39.6148 96.2205C44.3655 94.0197 49.1793 91.959 53.9861 89.8983C54.2453 89.8983 54.6796 89.597 54.9249 89.4988C55.2963 89.3376 55.6677 89.1834 56.0391 89.0222L58.1762 88.104C59.6056 87.4943 61.028 86.8845 62.4574 86.2747C65.3092 85.0551 68.161 83.8355 71.0129 82.609C76.7165 80.1698 82.4274 77.7237 88.131 75.2845C93.8347 72.8454 99.5453 70.3992 105.249 67.9601C110.953 65.5209 116.663 63.0748 122.367 60.6356C128.071 58.1965 133.781 55.7503 139.485 53.3112C140.753 52.7645 142.127 51.9514 143.486 51.7131C144.628 51.5099 145.742 51.1174 146.891 50.9001C149.071 50.4865 151.474 50.3183 153.562 51.2225C154.284 51.5379 154.949 51.9795 155.503 52.5332C158.152 55.1546 157.78 59.4581 157.22 63.1449C153.317 88.84 149.414 114.542 145.504 140.237C144.972 143.763 144.243 147.632 141.461 149.861C139.107 151.746 135.757 151.956 132.849 151.157C129.942 150.351 127.377 148.662 124.862 147.001C114.428 140.09 103.988 133.179 93.5544 126.268C91.074 124.628 88.3133 122.483 88.3413 119.505C88.3553 117.71 89.4273 116.112 90.5204 114.689C99.5874 102.858 112.669 94.7276 122.402 83.443C123.775 81.852 124.855 78.9783 122.97 78.0601C121.849 77.5134 120.559 78.2563 119.536 78.9643C106.671 87.9008 93.8137 96.8443 80.9489 105.781C76.7517 108.697 72.3513 111.696 67.2923 112.411C62.7658 113.056 58.2113 111.795 53.8319 110.505C50.1603 109.426 46.4955 108.318 42.8449 107.176C40.9039 106.573 38.8999 105.921 37.4004 104.554C35.9009 103.187 35.0392 100.889 35.9431 99.0662C36.5107 97.9237 37.6108 97.2018 38.7669 96.613L38.7808 96.62Z" fill="#FEFFFC"/></svg> 